<svg width="374" height="35" viewBox="0 0 374 35" fill="none" xmlns="http://www.w3.org/2000/svg">
<path d="M45.5078 0.390625L39.8828 31.8906C39.7578 32.5156 39.4766 33.0547 39.0391 33.5078C38.6016 33.9609 38.0703 34.25 37.4453 34.375C36.8047 34.4844 36.1953 34.4141 35.6172 34.1641C35.0547 33.9141 34.6094 33.5234 34.2812 32.9922L23.125 14.6641L11.9453 32.9922C11.6797 33.4453 11.3125 33.7969 10.8438 34.0469C10.3906 34.2969 9.89844 34.4219 9.36719 34.4219C8.63281 34.4219 7.98438 34.1875 7.42188 33.7188C6.85938 33.25 6.51562 32.6406 6.39062 31.8906L0.71875 0.390625H6.90625L10.9375 22.5859L20.5469 7.25781C20.8125 6.80469 21.1719 6.45312 21.625 6.20312C22.0938 5.95312 22.5938 5.82812 23.125 5.82812C23.6562 5.82812 24.1484 5.95312 24.6016 6.20312C25.0547 6.45312 25.4297 6.80469 25.7266 7.25781L35.2891 22.5859L39.3203 0.390625H45.5078ZM78.3672 20.2656H59.125V14.125H78.3672V20.2656ZM81.1094 34H59.125C58.2812 34 57.3594 33.8516 56.3594 33.5547C55.3594 33.2578 54.4297 32.7734 53.5703 32.1016C52.7266 31.4141 52.0156 30.5312 51.4375 29.4531C50.875 28.3594 50.5938 27.0234 50.5938 25.4453V3.46094C50.5938 3.03906 50.6719 2.64062 50.8281 2.26562C50.9844 1.89062 51.1953 1.5625 51.4609 1.28125C51.7422 1 52.0703 0.78125 52.4453 0.625C52.8203 0.46875 53.2266 0.390625 53.6641 0.390625H81.1094V6.48438H56.6875V25.4453C56.6875 26.2422 56.8984 26.8516 57.3203 27.2734C57.7422 27.6953 58.3594 27.9062 59.1719 27.9062H81.1094V34ZM120.555 26.6172C120.555 27.3672 120.422 28.1719 120.156 29.0312C119.906 29.8906 119.484 30.6875 118.891 31.4219C118.312 32.1562 117.555 32.7734 116.617 33.2734C115.68 33.7578 114.531 34 113.172 34H90.0391C89.6016 34 89.1953 33.9219 88.8203 33.7656C88.4453 33.6094 88.1172 33.3984 87.8359 33.1328C87.5703 32.8516 87.3594 32.5234 87.2031 32.1484C87.0469 31.7734 86.9688 31.3672 86.9688 30.9297V3.46094C86.9688 3.03906 87.0469 2.64062 87.2031 2.26562C87.3594 1.89062 87.5703 1.5625 87.8359 1.28125C88.1172 1 88.4453 0.78125 88.8203 0.625C89.1953 0.46875 89.6016 0.390625 90.0391 0.390625H110.43C111.18 0.390625 111.984 0.523438 112.844 0.789062C113.703 1.05469 114.5 1.48438 115.234 2.07812C115.984 2.65625 116.602 3.41406 117.086 4.35156C117.586 5.28906 117.836 6.4375 117.836 7.79688V8.94531C117.836 10.0234 117.656 11.1875 117.297 12.4375C116.938 13.6719 116.359 14.8438 115.562 15.9531C116.25 16.375 116.891 16.8828 117.484 17.4766C118.094 18.0703 118.625 18.7578 119.078 19.5391C119.531 20.3203 119.891 21.2031 120.156 22.1875C120.422 23.1719 120.555 24.2578 120.555 25.4453V26.6172ZM114.461 25.4453C114.461 24.6484 114.336 23.9375 114.086 23.3125C113.836 22.6719 113.484 22.125 113.031 21.6719C112.578 21.2188 112.031 20.875 111.391 20.6406C110.75 20.3906 110.031 20.2656 109.234 20.2656H95.5V14.125H106.492C107.289 14.125 108.008 14.0078 108.648 13.7734C109.289 13.5234 109.836 13.1719 110.289 12.7188C110.742 12.2656 111.086 11.7266 111.32 11.1016C111.57 10.4609 111.695 9.74219 111.695 8.94531V7.79688C111.695 6.92188 111.273 6.48438 110.43 6.48438H93.0625V27.9062H113.172C113.281 27.9062 113.414 27.8984 113.57 27.8828C113.727 27.8672 113.867 27.8203 113.992 27.7422C114.117 27.6641 114.227 27.5312 114.32 27.3438C114.414 27.1562 114.461 26.8984 114.461 26.5703V25.4453ZM153.578 25.4453C153.578 27.0234 153.289 28.3594 152.711 29.4531C152.148 30.5312 151.438 31.4141 150.578 32.1016C149.734 32.7734 148.812 33.2578 147.812 33.5547C146.812 33.8516 145.883 34 145.023 34H125.477V27.9062H145.023C145.852 27.9062 146.461 27.6953 146.852 27.2734C147.258 26.8516 147.461 26.2422 147.461 25.4453V20.2656H125.477V14.125H147.461V8.99219C147.461 7.32031 146.648 6.48438 145.023 6.48438H125.477V0.390625H145.023C146.07 0.390625 147.008 0.523438 147.836 0.789062C148.664 1.05469 149.391 1.41406 150.016 1.86719C150.656 2.30469 151.203 2.8125 151.656 3.39062C152.109 3.96875 152.477 4.57812 152.758 5.21875C153.039 5.84375 153.242 6.48438 153.367 7.14062C153.508 7.78125 153.578 8.38281 153.578 8.94531V25.4453ZM166.562 34H160.469V0.390625H166.562V34ZM189.039 12.3906L199.305 0.390625H207.625L193.164 17.2422L207.531 34H199.258L189.039 22.0938L178.867 34H170.57L184.914 17.2422L170.523 0.390625H178.773L189.039 12.3906ZM257.711 34H229.914C229.477 34 229.07 33.9219 228.695 33.7656C228.32 33.6094 227.992 33.3984 227.711 33.1328C227.445 32.8516 227.234 32.5234 227.078 32.1484C226.922 31.7734 226.844 31.3672 226.844 30.9297V0.390625H232.938V27.9062H257.711V34ZM295.164 34H289.07V25.75H267.648V34H261.555V17.1953C261.555 14.7422 261.977 12.4844 262.82 10.4219C263.664 8.35938 264.836 6.58594 266.336 5.10156C267.836 3.61719 269.609 2.46094 271.656 1.63281C273.703 0.804688 275.938 0.390625 278.359 0.390625H292.094C292.516 0.390625 292.914 0.46875 293.289 0.625C293.664 0.78125 293.992 1 294.273 1.28125C294.555 1.5625 294.773 1.89062 294.93 2.26562C295.086 2.64062 295.164 3.03906 295.164 3.46094V34ZM267.648 19.6562H289.07V6.48438H278.359C278.172 6.48438 277.773 6.51562 277.164 6.57812C276.57 6.625 275.875 6.75781 275.078 6.97656C274.297 7.19531 273.469 7.53125 272.594 7.98438C271.719 8.4375 270.914 9.0625 270.18 9.85938C269.445 10.6562 268.836 11.6562 268.352 12.8594C267.883 14.0469 267.648 15.4922 267.648 17.1953V19.6562ZM335.805 26.6172C335.805 27.3672 335.672 28.1719 335.406 29.0312C335.156 29.8906 334.734 30.6875 334.141 31.4219C333.562 32.1562 332.805 32.7734 331.867 33.2734C330.93 33.7578 329.781 34 328.422 34H305.289C304.852 34 304.445 33.9219 304.07 33.7656C303.695 33.6094 303.367 33.3984 303.086 33.1328C302.82 32.8516 302.609 32.5234 302.453 32.1484C302.297 31.7734 302.219 31.3672 302.219 30.9297V3.46094C302.219 3.03906 302.297 2.64062 302.453 2.26562C302.609 1.89062 302.82 1.5625 303.086 1.28125C303.367 1 303.695 0.78125 304.07 0.625C304.445 0.46875 304.852 0.390625 305.289 0.390625H325.68C326.43 0.390625 327.234 0.523438 328.094 0.789062C328.953 1.05469 329.75 1.48438 330.484 2.07812C331.234 2.65625 331.852 3.41406 332.336 4.35156C332.836 5.28906 333.086 6.4375 333.086 7.79688V8.94531C333.086 10.0234 332.906 11.1875 332.547 12.4375C332.188 13.6719 331.609 14.8438 330.812 15.9531C331.5 16.375 332.141 16.8828 332.734 17.4766C333.344 18.0703 333.875 18.7578 334.328 19.5391C334.781 20.3203 335.141 21.2031 335.406 22.1875C335.672 23.1719 335.805 24.2578 335.805 25.4453V26.6172ZM329.711 25.4453C329.711 24.6484 329.586 23.9375 329.336 23.3125C329.086 22.6719 328.734 22.125 328.281 21.6719C327.828 21.2188 327.281 20.875 326.641 20.6406C326 20.3906 325.281 20.2656 324.484 20.2656H310.75V14.125H321.742C322.539 14.125 323.258 14.0078 323.898 13.7734C324.539 13.5234 325.086 13.1719 325.539 12.7188C325.992 12.2656 326.336 11.7266 326.57 11.1016C326.82 10.4609 326.945 9.74219 326.945 8.94531V7.79688C326.945 6.92188 326.523 6.48438 325.68 6.48438H308.312V27.9062H328.422C328.531 27.9062 328.664 27.8984 328.82 27.8828C328.977 27.8672 329.117 27.8203 329.242 27.7422C329.367 27.6641 329.477 27.5312 329.57 27.3438C329.664 27.1562 329.711 26.8984 329.711 26.5703V25.4453ZM373.422 24.1094C373.422 25.3125 373.266 26.3984 372.953 27.3672C372.656 28.3203 372.258 29.1641 371.758 29.8984C371.258 30.6328 370.672 31.2578 370 31.7734C369.328 32.2891 368.633 32.7109 367.914 33.0391C367.195 33.3672 366.461 33.6094 365.711 33.7656C364.977 33.9219 364.281 34 363.625 34H340.117V27.9062H363.625C364.797 27.9062 365.703 27.5625 366.344 26.875C367 26.1875 367.328 25.2656 367.328 24.1094C367.328 23.5469 367.242 23.0312 367.07 22.5625C366.898 22.0938 366.648 21.6875 366.32 21.3438C366.008 21 365.617 20.7344 365.148 20.5469C364.695 20.3594 364.188 20.2656 363.625 20.2656H349.609C348.625 20.2656 347.562 20.0938 346.422 19.75C345.281 19.3906 344.219 18.8203 343.234 18.0391C342.266 17.2578 341.453 16.2344 340.797 14.9688C340.156 13.7031 339.836 12.1562 339.836 10.3281C339.836 8.5 340.156 6.96094 340.797 5.71094C341.453 4.44531 342.266 3.42188 343.234 2.64062C344.219 1.84375 345.281 1.27344 346.422 0.929688C347.562 0.570313 348.625 0.390625 349.609 0.390625H370.352V6.48438H349.609C348.453 6.48438 347.547 6.83594 346.891 7.53906C346.25 8.24219 345.93 9.17188 345.93 10.3281C345.93 11.5 346.25 12.4297 346.891 13.1172C347.547 13.7891 348.453 14.125 349.609 14.125H363.625H363.672C364.328 14.1406 365.023 14.2344 365.758 14.4062C366.492 14.5625 367.219 14.8125 367.938 15.1562C368.672 15.5 369.367 15.9375 370.023 16.4688C370.68 16.9844 371.258 17.6094 371.758 18.3438C372.273 19.0781 372.68 19.9219 372.977 20.875C373.273 21.8281 373.422 22.9062 373.422 24.1094Z" fill="white"/>
</svg>
