<svg width="280" height="27" viewBox="0 0 280 27" fill="none" xmlns="http://www.w3.org/2000/svg">
<path d="M33.8398 0.792969L29.6211 24.418C29.5273 24.8867 29.3164 25.291 28.9883 25.6309C28.6602 25.9707 28.2617 26.1875 27.793 26.2812C27.3125 26.3633 26.8555 26.3105 26.4219 26.123C26 25.9355 25.666 25.6426 25.4199 25.2441L17.0527 11.498L8.66797 25.2441C8.46875 25.584 8.19336 25.8477 7.8418 26.0352C7.50195 26.2227 7.13281 26.3164 6.73438 26.3164C6.18359 26.3164 5.69727 26.1406 5.27539 25.7891C4.85352 25.4375 4.5957 24.9805 4.50195 24.418L0.248047 0.792969H4.88867L7.91211 17.4395L15.1191 5.94336C15.3184 5.60352 15.5879 5.33984 15.9277 5.15234C16.2793 4.96484 16.6543 4.87109 17.0527 4.87109C17.4512 4.87109 17.8203 4.96484 18.1602 5.15234C18.5 5.33984 18.7812 5.60352 19.0039 5.94336L26.1758 17.4395L29.1992 0.792969H33.8398ZM58.4844 15.6992H44.0527V11.0938H58.4844V15.6992ZM60.541 26H44.0527C43.4199 26 42.7285 25.8887 41.9785 25.666C41.2285 25.4434 40.5312 25.0801 39.8867 24.5762C39.2539 24.0605 38.7207 23.3984 38.2871 22.5898C37.8652 21.7695 37.6543 20.7676 37.6543 19.584V3.0957C37.6543 2.7793 37.7129 2.48047 37.8301 2.19922C37.9473 1.91797 38.1055 1.67188 38.3047 1.46094C38.5156 1.25 38.7617 1.08594 39.043 0.96875C39.3242 0.851562 39.6289 0.792969 39.957 0.792969H60.541V5.36328H42.2246V19.584C42.2246 20.1816 42.3828 20.6387 42.6992 20.9551C43.0156 21.2715 43.4785 21.4297 44.0879 21.4297H60.541V26ZM90.125 20.4629C90.125 21.0254 90.0254 21.6289 89.8262 22.2734C89.6387 22.918 89.3223 23.5156 88.877 24.0664C88.4434 24.6172 87.875 25.0801 87.1719 25.4551C86.4688 25.8184 85.6074 26 84.5879 26H67.2383C66.9102 26 66.6055 25.9414 66.3242 25.8242C66.043 25.707 65.7969 25.5488 65.5859 25.3496C65.3867 25.1387 65.2285 24.8926 65.1113 24.6113C64.9941 24.3301 64.9355 24.0254 64.9355 23.6973V3.0957C64.9355 2.7793 64.9941 2.48047 65.1113 2.19922C65.2285 1.91797 65.3867 1.67188 65.5859 1.46094C65.7969 1.25 66.043 1.08594 66.3242 0.96875C66.6055 0.851562 66.9102 0.792969 67.2383 0.792969H82.5312C83.0938 0.792969 83.6973 0.892578 84.3418 1.0918C84.9863 1.29102 85.584 1.61328 86.1348 2.05859C86.6973 2.49219 87.1602 3.06055 87.5234 3.76367C87.8984 4.4668 88.0859 5.32812 88.0859 6.34766V7.20898C88.0859 8.01758 87.9512 8.89062 87.6816 9.82812C87.4121 10.7539 86.9785 11.6328 86.3809 12.4648C86.8965 12.7812 87.377 13.1621 87.8223 13.6074C88.2793 14.0527 88.6777 14.5684 89.0176 15.1543C89.3574 15.7402 89.627 16.4023 89.8262 17.1406C90.0254 17.8789 90.125 18.6934 90.125 19.584V20.4629ZM85.5547 19.584C85.5547 18.9863 85.4609 18.4531 85.2734 17.9844C85.0859 17.5039 84.8223 17.0938 84.4824 16.7539C84.1426 16.4141 83.7324 16.1562 83.252 15.9805C82.7715 15.793 82.2324 15.6992 81.6348 15.6992H71.334V11.0938H79.5781C80.1758 11.0938 80.7148 11.0059 81.1953 10.8301C81.6758 10.6426 82.0859 10.3789 82.4258 10.0391C82.7656 9.69922 83.0234 9.29492 83.1992 8.82617C83.3867 8.3457 83.4805 7.80664 83.4805 7.20898V6.34766C83.4805 5.69141 83.1641 5.36328 82.5312 5.36328H69.5059V21.4297H84.5879C84.6699 21.4297 84.7695 21.4238 84.8867 21.4121C85.0039 21.4004 85.1094 21.3652 85.2031 21.3066C85.2969 21.248 85.3789 21.1484 85.4492 21.0078C85.5195 20.8672 85.5547 20.6738 85.5547 20.4277V19.584ZM114.893 19.584C114.893 20.7676 114.676 21.7695 114.242 22.5898C113.82 23.3984 113.287 24.0605 112.643 24.5762C112.01 25.0801 111.318 25.4434 110.568 25.666C109.818 25.8887 109.121 26 108.477 26H93.8164V21.4297H108.477C109.098 21.4297 109.555 21.2715 109.848 20.9551C110.152 20.6387 110.305 20.1816 110.305 19.584V15.6992H93.8164V11.0938H110.305V7.24414C110.305 5.99023 109.695 5.36328 108.477 5.36328H93.8164V0.792969H108.477C109.262 0.792969 109.965 0.892578 110.586 1.0918C111.207 1.29102 111.752 1.56055 112.221 1.90039C112.701 2.22852 113.111 2.60937 113.451 3.04297C113.791 3.47656 114.066 3.93359 114.277 4.41406C114.488 4.88281 114.641 5.36328 114.734 5.85547C114.84 6.33594 114.893 6.78711 114.893 7.20898V19.584ZM124.631 26H120.061V0.792969H124.631V26ZM141.488 9.79297L149.188 0.792969H155.428L144.582 13.4316L155.357 26H149.152L141.488 17.0703L133.859 26H127.637L138.395 13.4316L127.602 0.792969H133.789L141.488 9.79297ZM192.992 26H172.145C171.816 26 171.512 25.9414 171.23 25.8242C170.949 25.707 170.703 25.5488 170.492 25.3496C170.293 25.1387 170.135 24.8926 170.018 24.6113C169.9 24.3301 169.842 24.0254 169.842 23.6973V0.792969H174.412V21.4297H192.992V26ZM221.082 26H216.512V19.8125H200.445V26H195.875V13.3965C195.875 11.5566 196.191 9.86328 196.824 8.31641C197.457 6.76953 198.336 5.43945 199.461 4.32617C200.586 3.21289 201.916 2.3457 203.451 1.72461C204.986 1.10352 206.662 0.792969 208.479 0.792969H218.779C219.096 0.792969 219.395 0.851562 219.676 0.96875C219.957 1.08594 220.203 1.25 220.414 1.46094C220.625 1.67188 220.789 1.91797 220.906 2.19922C221.023 2.48047 221.082 2.7793 221.082 3.0957V26ZM200.445 15.2422H216.512V5.36328H208.479C208.338 5.36328 208.039 5.38672 207.582 5.43359C207.137 5.46875 206.615 5.56836 206.018 5.73242C205.432 5.89648 204.811 6.14844 204.154 6.48828C203.498 6.82812 202.895 7.29688 202.344 7.89453C201.793 8.49219 201.336 9.24219 200.973 10.1445C200.621 11.0352 200.445 12.1191 200.445 13.3965V15.2422ZM251.562 20.4629C251.562 21.0254 251.463 21.6289 251.264 22.2734C251.076 22.918 250.76 23.5156 250.314 24.0664C249.881 24.6172 249.312 25.0801 248.609 25.4551C247.906 25.8184 247.045 26 246.025 26H228.676C228.348 26 228.043 25.9414 227.762 25.8242C227.48 25.707 227.234 25.5488 227.023 25.3496C226.824 25.1387 226.666 24.8926 226.549 24.6113C226.432 24.3301 226.373 24.0254 226.373 23.6973V3.0957C226.373 2.7793 226.432 2.48047 226.549 2.19922C226.666 1.91797 226.824 1.67188 227.023 1.46094C227.234 1.25 227.48 1.08594 227.762 0.96875C228.043 0.851562 228.348 0.792969 228.676 0.792969H243.969C244.531 0.792969 245.135 0.892578 245.779 1.0918C246.424 1.29102 247.021 1.61328 247.572 2.05859C248.135 2.49219 248.598 3.06055 248.961 3.76367C249.336 4.4668 249.523 5.32812 249.523 6.34766V7.20898C249.523 8.01758 249.389 8.89062 249.119 9.82812C248.85 10.7539 248.416 11.6328 247.818 12.4648C248.334 12.7812 248.814 13.1621 249.26 13.6074C249.717 14.0527 250.115 14.5684 250.455 15.1543C250.795 15.7402 251.064 16.4023 251.264 17.1406C251.463 17.8789 251.562 18.6934 251.562 19.584V20.4629ZM246.992 19.584C246.992 18.9863 246.898 18.4531 246.711 17.9844C246.523 17.5039 246.26 17.0938 245.92 16.7539C245.58 16.4141 245.17 16.1562 244.689 15.9805C244.209 15.793 243.67 15.6992 243.072 15.6992H232.771V11.0938H241.016C241.613 11.0938 242.152 11.0059 242.633 10.8301C243.113 10.6426 243.523 10.3789 243.863 10.0391C244.203 9.69922 244.461 9.29492 244.637 8.82617C244.824 8.3457 244.918 7.80664 244.918 7.20898V6.34766C244.918 5.69141 244.602 5.36328 243.969 5.36328H230.943V21.4297H246.025C246.107 21.4297 246.207 21.4238 246.324 21.4121C246.441 21.4004 246.547 21.3652 246.641 21.3066C246.734 21.248 246.816 21.1484 246.887 21.0078C246.957 20.8672 246.992 20.6738 246.992 20.4277V19.584ZM279.775 18.582C279.775 19.4844 279.658 20.2988 279.424 21.0254C279.201 21.7402 278.902 22.373 278.527 22.9238C278.152 23.4746 277.713 23.9434 277.209 24.3301C276.705 24.7168 276.184 25.0332 275.645 25.2793C275.105 25.5254 274.555 25.707 273.992 25.8242C273.441 25.9414 272.92 26 272.428 26H254.797V21.4297H272.428C273.307 21.4297 273.986 21.1719 274.467 20.6562C274.959 20.1406 275.205 19.4492 275.205 18.582C275.205 18.1602 275.141 17.7734 275.012 17.4219C274.883 17.0703 274.695 16.7656 274.449 16.5078C274.215 16.25 273.922 16.0508 273.57 15.9102C273.23 15.7695 272.85 15.6992 272.428 15.6992H261.916C261.178 15.6992 260.381 15.5703 259.525 15.3125C258.67 15.043 257.873 14.6152 257.135 14.0293C256.408 13.4434 255.799 12.6758 255.307 11.7266C254.826 10.7773 254.586 9.61719 254.586 8.24609C254.586 6.875 254.826 5.7207 255.307 4.7832C255.799 3.83398 256.408 3.06641 257.135 2.48047C257.873 1.88281 258.67 1.45508 259.525 1.19727C260.381 0.927734 261.178 0.792969 261.916 0.792969H277.473V5.36328H261.916C261.049 5.36328 260.369 5.62695 259.877 6.1543C259.396 6.68164 259.156 7.37891 259.156 8.24609C259.156 9.125 259.396 9.82227 259.877 10.3379C260.369 10.8418 261.049 11.0938 261.916 11.0938H272.428H272.463C272.955 11.1055 273.477 11.1758 274.027 11.3047C274.578 11.4219 275.123 11.6094 275.662 11.8672C276.213 12.125 276.734 12.4531 277.227 12.8516C277.719 13.2383 278.152 13.707 278.527 14.2578C278.914 14.8086 279.219 15.4414 279.441 16.1562C279.664 16.8711 279.775 17.6797 279.775 18.582Z" fill="black"/>
</svg>
