<svg width="208" height="72" viewBox="0 0 208 72" fill="none" xmlns="http://www.w3.org/2000/svg">
<path d="M45.1328 0.390625L39.5078 31.8906C39.3828 32.5156 39.1016 33.0547 38.6641 33.5078C38.2266 33.9609 37.6953 34.25 37.0703 34.375C36.4297 34.4844 35.8203 34.4141 35.2422 34.1641C34.6797 33.9141 34.2344 33.5234 33.9062 32.9922L22.75 14.6641L11.5703 32.9922C11.3047 33.4453 10.9375 33.7969 10.4688 34.0469C10.0156 34.2969 9.52344 34.4219 8.99219 34.4219C8.25781 34.4219 7.60938 34.1875 7.04688 33.7188C6.48438 33.25 6.14062 32.6406 6.01562 31.8906L0.34375 0.390625H6.53125L10.5625 22.5859L20.1719 7.25781C20.4375 6.80469 20.7969 6.45313 21.25 6.20312C21.7188 5.95312 22.2188 5.82812 22.75 5.82812C23.2812 5.82812 23.7734 5.95312 24.2266 6.20312C24.6797 6.45313 25.0547 6.80469 25.3516 7.25781L34.9141 22.5859L38.9453 0.390625H45.1328ZM77.9922 20.2656H58.75V14.125H77.9922V20.2656ZM80.7344 34H58.75C57.9062 34 56.9844 33.8516 55.9844 33.5547C54.9844 33.2578 54.0547 32.7734 53.1953 32.1016C52.3516 31.4141 51.6406 30.5312 51.0625 29.4531C50.5 28.3594 50.2188 27.0234 50.2188 25.4453V3.46094C50.2188 3.03906 50.2969 2.64062 50.4531 2.26562C50.6094 1.89062 50.8203 1.5625 51.0859 1.28125C51.3672 1 51.6953 0.78125 52.0703 0.625C52.4453 0.46875 52.8516 0.390625 53.2891 0.390625H80.7344V6.48438H56.3125V25.4453C56.3125 26.2422 56.5234 26.8516 56.9453 27.2734C57.3672 27.6953 57.9844 27.9062 58.7969 27.9062H80.7344V34ZM120.18 26.6172C120.18 27.3672 120.047 28.1719 119.781 29.0312C119.531 29.8906 119.109 30.6875 118.516 31.4219C117.938 32.1562 117.18 32.7734 116.242 33.2734C115.305 33.7578 114.156 34 112.797 34H89.6641C89.2266 34 88.8203 33.9219 88.4453 33.7656C88.0703 33.6094 87.7422 33.3984 87.4609 33.1328C87.1953 32.8516 86.9844 32.5234 86.8281 32.1484C86.6719 31.7734 86.5938 31.3672 86.5938 30.9297V3.46094C86.5938 3.03906 86.6719 2.64062 86.8281 2.26562C86.9844 1.89062 87.1953 1.5625 87.4609 1.28125C87.7422 1 88.0703 0.78125 88.4453 0.625C88.8203 0.46875 89.2266 0.390625 89.6641 0.390625H110.055C110.805 0.390625 111.609 0.523438 112.469 0.789062C113.328 1.05469 114.125 1.48438 114.859 2.07812C115.609 2.65625 116.227 3.41406 116.711 4.35156C117.211 5.28906 117.461 6.4375 117.461 7.79688V8.94531C117.461 10.0234 117.281 11.1875 116.922 12.4375C116.562 13.6719 115.984 14.8438 115.188 15.9531C115.875 16.375 116.516 16.8828 117.109 17.4766C117.719 18.0703 118.25 18.7578 118.703 19.5391C119.156 20.3203 119.516 21.2031 119.781 22.1875C120.047 23.1719 120.18 24.2578 120.18 25.4453V26.6172ZM114.086 25.4453C114.086 24.6484 113.961 23.9375 113.711 23.3125C113.461 22.6719 113.109 22.125 112.656 21.6719C112.203 21.2188 111.656 20.875 111.016 20.6406C110.375 20.3906 109.656 20.2656 108.859 20.2656H95.125V14.125H106.117C106.914 14.125 107.633 14.0078 108.273 13.7734C108.914 13.5234 109.461 13.1719 109.914 12.7188C110.367 12.2656 110.711 11.7266 110.945 11.1016C111.195 10.4609 111.32 9.74219 111.32 8.94531V7.79688C111.32 6.92188 110.898 6.48438 110.055 6.48438H92.6875V27.9062H112.797C112.906 27.9062 113.039 27.8984 113.195 27.8828C113.352 27.8672 113.492 27.8203 113.617 27.7422C113.742 27.6641 113.852 27.5312 113.945 27.3438C114.039 27.1562 114.086 26.8984 114.086 26.5703V25.4453ZM153.203 25.4453C153.203 27.0234 152.914 28.3594 152.336 29.4531C151.773 30.5312 151.062 31.4141 150.203 32.1016C149.359 32.7734 148.438 33.2578 147.438 33.5547C146.438 33.8516 145.508 34 144.648 34H125.102V27.9062H144.648C145.477 27.9062 146.086 27.6953 146.477 27.2734C146.883 26.8516 147.086 26.2422 147.086 25.4453V20.2656H125.102V14.125H147.086V8.99219C147.086 7.32031 146.273 6.48438 144.648 6.48438H125.102V0.390625H144.648C145.695 0.390625 146.633 0.523438 147.461 0.789062C148.289 1.05469 149.016 1.41406 149.641 1.86719C150.281 2.30469 150.828 2.8125 151.281 3.39062C151.734 3.96875 152.102 4.57813 152.383 5.21875C152.664 5.84375 152.867 6.48438 152.992 7.14062C153.133 7.78125 153.203 8.38281 153.203 8.94531V25.4453ZM166.188 34H160.094V0.390625H166.188V34ZM188.664 12.3906L198.93 0.390625H207.25L192.789 17.2422L207.156 34H198.883L188.664 22.0938L178.492 34H170.195L184.539 17.2422L170.148 0.390625H178.398L188.664 12.3906ZM61.5859 72H33.7891C33.3516 72 32.9453 71.9219 32.5703 71.7656C32.1953 71.6094 31.8672 71.3984 31.5859 71.1328C31.3203 70.8516 31.1094 70.5234 30.9531 70.1484C30.7969 69.7734 30.7188 69.3672 30.7188 68.9297V38.3906H36.8125V65.9062H61.5859V72ZM99.0391 72H92.9453V63.75H71.5234V72H65.4297V55.1953C65.4297 52.7422 65.8516 50.4844 66.6953 48.4219C67.5391 46.3594 68.7109 44.5859 70.2109 43.1016C71.7109 41.6172 73.4844 40.4609 75.5312 39.6328C77.5781 38.8047 79.8125 38.3906 82.2344 38.3906H95.9688C96.3906 38.3906 96.7891 38.4688 97.1641 38.625C97.5391 38.7812 97.8672 39 98.1484 39.2812C98.4297 39.5625 98.6484 39.8906 98.8047 40.2656C98.9609 40.6406 99.0391 41.0391 99.0391 41.4609V72ZM71.5234 57.6562H92.9453V44.4844H82.2344C82.0469 44.4844 81.6484 44.5156 81.0391 44.5781C80.4453 44.625 79.75 44.7578 78.9531 44.9766C78.1719 45.1953 77.3438 45.5312 76.4688 45.9844C75.5938 46.4375 74.7891 47.0625 74.0547 47.8594C73.3203 48.6562 72.7109 49.6562 72.2266 50.8594C71.7578 52.0469 71.5234 53.4922 71.5234 55.1953V57.6562ZM139.68 64.6172C139.68 65.3672 139.547 66.1719 139.281 67.0312C139.031 67.8906 138.609 68.6875 138.016 69.4219C137.438 70.1562 136.68 70.7734 135.742 71.2734C134.805 71.7578 133.656 72 132.297 72H109.164C108.727 72 108.32 71.9219 107.945 71.7656C107.57 71.6094 107.242 71.3984 106.961 71.1328C106.695 70.8516 106.484 70.5234 106.328 70.1484C106.172 69.7734 106.094 69.3672 106.094 68.9297V41.4609C106.094 41.0391 106.172 40.6406 106.328 40.2656C106.484 39.8906 106.695 39.5625 106.961 39.2812C107.242 39 107.57 38.7812 107.945 38.625C108.32 38.4688 108.727 38.3906 109.164 38.3906H129.555C130.305 38.3906 131.109 38.5234 131.969 38.7891C132.828 39.0547 133.625 39.4844 134.359 40.0781C135.109 40.6562 135.727 41.4141 136.211 42.3516C136.711 43.2891 136.961 44.4375 136.961 45.7969V46.9453C136.961 48.0234 136.781 49.1875 136.422 50.4375C136.062 51.6719 135.484 52.8438 134.688 53.9531C135.375 54.375 136.016 54.8828 136.609 55.4766C137.219 56.0703 137.75 56.7578 138.203 57.5391C138.656 58.3203 139.016 59.2031 139.281 60.1875C139.547 61.1719 139.68 62.2578 139.68 63.4453V64.6172ZM133.586 63.4453C133.586 62.6484 133.461 61.9375 133.211 61.3125C132.961 60.6719 132.609 60.125 132.156 59.6719C131.703 59.2188 131.156 58.875 130.516 58.6406C129.875 58.3906 129.156 58.2656 128.359 58.2656H114.625V52.125H125.617C126.414 52.125 127.133 52.0078 127.773 51.7734C128.414 51.5234 128.961 51.1719 129.414 50.7188C129.867 50.2656 130.211 49.7266 130.445 49.1016C130.695 48.4609 130.82 47.7422 130.82 46.9453V45.7969C130.82 44.9219 130.398 44.4844 129.555 44.4844H112.188V65.9062H132.297C132.406 65.9062 132.539 65.8984 132.695 65.8828C132.852 65.8672 132.992 65.8203 133.117 65.7422C133.242 65.6641 133.352 65.5312 133.445 65.3438C133.539 65.1562 133.586 64.8984 133.586 64.5703V63.4453ZM177.297 62.1094C177.297 63.3125 177.141 64.3984 176.828 65.3672C176.531 66.3203 176.133 67.1641 175.633 67.8984C175.133 68.6328 174.547 69.2578 173.875 69.7734C173.203 70.2891 172.508 70.7109 171.789 71.0391C171.07 71.3672 170.336 71.6094 169.586 71.7656C168.852 71.9219 168.156 72 167.5 72H143.992V65.9062H167.5C168.672 65.9062 169.578 65.5625 170.219 64.875C170.875 64.1875 171.203 63.2656 171.203 62.1094C171.203 61.5469 171.117 61.0312 170.945 60.5625C170.773 60.0938 170.523 59.6875 170.195 59.3438C169.883 59 169.492 58.7344 169.023 58.5469C168.57 58.3594 168.062 58.2656 167.5 58.2656H153.484C152.5 58.2656 151.438 58.0938 150.297 57.75C149.156 57.3906 148.094 56.8203 147.109 56.0391C146.141 55.2578 145.328 54.2344 144.672 52.9688C144.031 51.7031 143.711 50.1562 143.711 48.3281C143.711 46.5 144.031 44.9609 144.672 43.7109C145.328 42.4453 146.141 41.4219 147.109 40.6406C148.094 39.8438 149.156 39.2734 150.297 38.9297C151.438 38.5703 152.5 38.3906 153.484 38.3906H174.227V44.4844H153.484C152.328 44.4844 151.422 44.8359 150.766 45.5391C150.125 46.2422 149.805 47.1719 149.805 48.3281C149.805 49.5 150.125 50.4297 150.766 51.1172C151.422 51.7891 152.328 52.125 153.484 52.125H167.5H167.547C168.203 52.1406 168.898 52.2344 169.633 52.4062C170.367 52.5625 171.094 52.8125 171.812 53.1562C172.547 53.5 173.242 53.9375 173.898 54.4688C174.555 54.9844 175.133 55.6094 175.633 56.3438C176.148 57.0781 176.555 57.9219 176.852 58.875C177.148 59.8281 177.297 60.9062 177.297 62.1094Z" fill="white"/>
</svg>
